<?xml version="1.0" standalone="no"?>
<!DOCTYPE svg PUBLIC "-//W3C//DTD SVG 20010904//EN"
 "http://www.w3.org/TR/2001/REC-SVG-20010904/DTD/svg10.dtd">
<svg version="1.0" xmlns="http://www.w3.org/2000/svg"
 width="1380.000000pt" height="1380.000000pt" viewBox="0 0 1380.000000 1380.000000"
 preserveAspectRatio="xMidYMid meet">

<g transform="translate(0.000000,1380.000000) scale(0.100000,-0.100000)"
fill="#000000" stroke="none">
<path d="M3577 11730 c-4 -17 -21 -111 -37 -208 -17 -97 -33 -186 -37 -196 -5
-19 -6 -19 -18 -2 -7 9 -16 37 -20 62 l-6 46 -52 -7 c-29 -4 -53 -8 -53 -9 -1
0 4 -32 11 -69 8 -43 9 -67 3 -65 -6 2 -58 88 -117 190 -58 103 -109 189 -112
193 -4 3 -63 -15 -131 -40 l-124 -47 38 -206 c21 -114 38 -216 37 -227 0 -16
-9 -10 -44 28 -24 26 -49 47 -55 47 -7 0 -25 -9 -41 -21 -29 -21 -30 -22 -13
-47 39 -59 55 -92 46 -92 -5 0 -83 61 -172 135 -90 74 -168 135 -174 135 -6 0
-56 -45 -111 -100 l-99 -99 34 -48 c19 -26 73 -99 120 -162 47 -63 91 -122 98
-132 27 -35 6 -37 -50 -4 l-56 33 -27 -40 -27 -41 48 -44 49 -44 -35 6 c-19 4
-118 27 -219 51 -147 36 -186 42 -192 32 -5 -7 -23 -47 -40 -88 -17 -41 -40
-91 -50 -112 l-19 -36 180 -112 c99 -62 180 -118 180 -125 0 -9 -11 -10 -47
-4 -25 5 -49 11 -52 14 -6 6 -31 -71 -31 -97 0 -12 17 -22 60 -34 33 -9 60
-20 60 -24 0 -9 -62 -21 -265 -50 -77 -11 -150 -22 -163 -25 -22 -5 -23 -7
-20 -152 l3 -147 135 -23 c74 -12 165 -27 203 -33 37 -7 67 -16 67 -21 0 -4
-18 -13 -41 -19 -30 -8 -39 -15 -35 -26 3 -9 6 -32 6 -51 0 -32 2 -35 23 -29
12 4 45 9 72 12 50 6 50 6 30 -13 -11 -11 -102 -68 -203 -128 -162 -95 -182
-110 -176 -129 7 -24 95 -250 99 -254 1 -1 90 20 198 48 108 27 205 50 214 50
13 -1 6 -12 -24 -39 -24 -21 -43 -43 -43 -47 1 -5 14 -24 30 -43 l29 -34 38
32 c34 28 63 40 63 26 0 -9 -158 -243 -217 -321 -29 -40 -53 -76 -53 -81 0 -5
43 -55 95 -110 52 -56 95 -104 95 -107 0 -3 -15 -6 -33 -6 -18 0 -42 -7 -53
-15 -10 -8 -29 -15 -41 -15 -12 0 -34 -11 -50 -24 -16 -14 -38 -24 -48 -23
-15 2 -23 -9 -35 -47 -11 -33 -28 -58 -53 -78 -27 -22 -37 -37 -37 -59 0 -20
-5 -29 -16 -29 -14 0 -15 -7 -10 -40 4 -24 2 -47 -5 -58 -9 -14 -7 -27 9 -59
12 -22 19 -43 16 -46 -7 -7 32 -116 48 -134 6 -7 20 -13 33 -13 13 0 49 -24
89 -61 61 -56 66 -64 66 -102 0 -23 -3 -59 -6 -79 -6 -36 -9 -38 -44 -38 -28
0 -40 -5 -49 -22 -7 -13 -31 -38 -54 -56 -23 -18 -62 -48 -87 -68 -25 -19 -60
-47 -79 -61 -78 -60 -128 -250 -118 -453 3 -63 17 -191 30 -285 14 -93 31
-219 38 -280 17 -145 17 -430 0 -524 l-13 -74 35 -31 35 -31 -15 -60 c-10 -40
-26 -72 -48 -95 -32 -34 -33 -37 -38 -150 -3 -63 -15 -169 -28 -235 -23 -124
-29 -214 -15 -252 6 -17 5 -23 -6 -23 -8 0 -22 -8 -32 -19 -13 -14 -14 -24 -7
-44 11 -28 -6 -269 -34 -487 -8 -63 -15 -117 -15 -121 0 -4 -12 -9 -27 -11
-43 -5 -55 -39 -49 -134 5 -78 3 -85 -29 -145 -37 -71 -105 -287 -190 -609
-58 -217 -67 -277 -52 -338 l9 -34 -31 16 c-16 9 -34 16 -40 16 -19 0 -23
-200 -7 -293 9 -49 19 -94 23 -100 4 -7 8 -77 8 -157 1 -80 4 -157 9 -172 16
-54 171 -88 320 -69 103 13 166 28 166 39 0 5 -7 17 -15 28 -8 10 -15 27 -15
37 0 10 -9 35 -20 57 -11 21 -30 79 -43 128 -26 102 -28 92 50 233 29 54 53
102 53 108 0 6 -12 17 -26 23 -24 11 -25 16 -20 53 10 61 133 477 173 585 20
52 51 126 70 164 25 49 31 72 24 79 -21 21 -10 44 54 120 62 72 65 78 59 114
-5 30 4 72 40 184 25 79 66 218 91 309 25 91 49 174 52 184 4 15 7 16 13 5 19
-34 70 -400 86 -621 l7 -87 -42 -17 c-22 -9 -41 -19 -41 -24 0 -4 15 -23 34
-42 l34 -35 -19 -79 c-35 -147 -49 -288 -49 -493 l0 -198 30 -41 c16 -23 39
-46 50 -52 37 -20 21 -30 -50 -30 l-70 0 31 -56 32 -55 -7 -114 c-7 -109 -6
-115 19 -165 25 -50 26 -55 19 -176 l-7 -124 39 0 c74 -1 287 -20 453 -41 184
-23 294 -21 423 7 l76 17 -5 61 c-3 33 -7 62 -8 64 -2 2 -69 26 -150 53 -158
53 -281 112 -341 163 l-37 32 -11 123 c-10 106 -14 124 -31 133 -11 6 -22 12
-24 14 -2 2 8 17 22 34 39 46 42 85 17 207 -44 210 -46 269 -19 478 9 66 8 88
-5 125 -15 44 -15 45 12 78 51 65 60 85 67 154 6 61 12 74 46 114 21 25 39 49
39 54 0 4 -12 17 -27 28 l-27 19 18 99 c72 413 91 674 65 889 -6 50 -12 125
-13 169 -2 72 -4 79 -28 94 -27 16 -38 48 -38 112 0 36 2 39 46 56 l46 18 -6
50 c-3 28 -9 170 -12 316 l-6 265 68 36 c52 26 70 41 72 58 3 18 0 22 -12 18
-32 -13 -392 -126 -411 -129 -31 -7 -134 56 -228 139 -45 39 -61 64 -27 42 14
-9 76 -47 137 -84 93 -56 118 -66 142 -62 39 8 199 68 328 123 57 24 105 44
108 44 3 0 3 -10 1 -22 -3 -13 -8 -57 -11 -99 l-6 -76 33 -7 c18 -3 79 -15
135 -27 l102 -21 25 -107 c14 -58 29 -145 32 -193 l7 -88 -36 0 c-42 0 -43 -3
-53 -157 -6 -94 -5 -104 15 -129 29 -37 27 -72 -4 -86 -18 -8 -25 -19 -25 -38
0 -24 -10 -33 -71 -65 -40 -21 -68 -42 -66 -48 3 -7 17 -41 32 -76 15 -35 37
-80 50 -99 22 -32 24 -33 34 -14 6 12 11 52 11 90 0 84 9 132 24 132 6 0 21
-8 33 -18 19 -15 22 -28 24 -112 2 -52 -1 -122 -5 -155 -7 -49 -4 -73 13 -133
l22 -72 42 6 c75 10 85 13 92 36 6 22 7 22 15 -6 6 -17 6 -34 0 -40 -4 -6 -15
-36 -22 -66 -14 -53 -15 -55 -51 -58 -33 -3 -36 -5 -31 -30 3 -15 6 -54 7 -86
l2 -60 -59 -18 c-32 -10 -62 -16 -66 -13 -4 3 -20 35 -36 72 -15 38 -31 72
-35 77 -9 10 -89 -22 -89 -35 0 -4 13 -42 29 -83 27 -69 28 -76 12 -89 -34
-30 -113 -69 -120 -61 -5 5 -31 34 -59 66 l-50 56 -32 -33 c-33 -34 -33 -34
-15 -62 10 -15 33 -46 51 -69 l33 -41 -48 -47 c-45 -45 -48 -50 -44 -89 4 -34
-1 -50 -25 -87 -19 -29 -32 -65 -36 -99 -9 -68 -29 -118 -63 -154 -24 -24 -27
-35 -28 -110 -1 -45 -5 -175 -10 -288 l-8 -206 41 -90 c23 -49 42 -93 42 -97
0 -4 -16 -26 -35 -48 -36 -42 -36 -47 0 -92 14 -19 16 -18 56 9 l42 27 50 -50
51 -51 -52 -78 -52 -78 36 -31 37 -32 55 72 c30 39 56 73 58 75 3 4 76 -38
108 -61 18 -14 17 -17 -7 -84 -14 -38 -28 -77 -32 -87 -6 -13 1 -20 29 -32 19
-8 41 -15 48 -15 7 0 26 34 42 75 16 42 32 78 37 81 14 8 120 -27 126 -42 3
-9 0 -49 -7 -90 -6 -42 -10 -77 -8 -80 3 -2 25 -7 49 -10 l45 -6 12 73 c17
100 20 103 84 100 85 -4 85 -3 92 -82 10 -93 12 -99 50 -99 55 0 60 9 52 98
l-7 81 38 10 c21 6 54 14 74 17 l36 6 34 -84 33 -85 46 15 47 15 -24 74 c-12
40 -23 80 -23 88 0 8 26 28 59 44 l59 30 48 -66 c27 -36 52 -70 55 -75 4 -6
18 -4 35 6 59 31 59 28 8 110 l-47 78 49 49 c26 27 54 49 60 49 7 0 44 -25 82
-55 l70 -55 32 36 32 37 -66 59 c-36 33 -66 64 -66 69 0 12 67 116 80 124 5 3
47 -11 93 -33 l83 -39 18 44 c10 24 17 45 15 47 -2 2 -36 20 -76 40 -39 19
-74 40 -77 45 -8 13 36 152 50 158 7 2 46 -2 88 -10 l76 -14 11 40 c12 47 8
52 -60 62 -25 4 -60 13 -78 20 -30 13 -31 16 -27 57 12 105 11 104 62 126 26
11 64 23 85 27 33 7 38 11 33 29 -3 11 -6 30 -6 42 0 20 -1 20 -73 5 -83 -17
-107 -12 -107 21 0 21 4 23 47 20 27 -2 65 3 85 10 l38 13 -95 70 c-52 39 -95
73 -95 78 0 24 46 -3 127 -74 l91 -80 7 -64 c4 -35 4 -68 1 -73 -3 -5 -30 -13
-60 -16 -70 -9 -93 -25 -77 -53 6 -12 24 -24 41 -27 16 -3 44 -9 60 -12 47 -9
27 -20 -46 -27 -37 -4 -71 -10 -76 -15 -12 -12 82 -54 125 -55 45 -1 79 28
114 98 14 28 26 51 27 52 7 8 313 -123 335 -143 3 -3 -2 -12 -11 -21 -15 -15
-20 -13 -59 20 l-42 36 -23 -49 c-36 -78 -35 -82 16 -95 34 -8 45 -16 45 -30
0 -21 -4 -22 -77 -11 l-45 7 -7 -51 c-4 -28 -4 -54 -2 -59 3 -5 26 -12 51 -15
l45 -7 0 -53 c0 -62 -10 -73 -65 -78 l-40 -3 0 -50 0 -50 54 -5 c53 -5 54 -5
72 -52 l19 -48 -23 -14 c-12 -8 -34 -20 -50 -27 -29 -13 -29 -25 0 -82 13 -27
14 -27 49 -12 53 22 60 20 94 -30 l31 -45 -36 -31 c-19 -17 -35 -36 -35 -42 0
-5 12 -25 26 -44 l25 -34 42 31 c22 16 46 30 51 30 6 -1 26 -14 44 -29 l33
-29 -25 -51 -26 -50 38 -26 37 -26 28 33 c15 18 27 36 27 40 0 13 38 9 75 -9
l36 -17 -6 -57 -7 -56 33 -12 c50 -17 56 -14 75 39 17 47 20 50 53 50 70 0 78
-7 86 -66 l7 -55 46 3 47 3 3 56 3 56 54 10 54 9 25 -52 25 -53 50 20 49 21
-14 40 c-20 58 -19 63 29 91 l42 26 42 -41 c45 -45 43 -45 100 5 l21 19 -33
47 -33 46 39 43 40 42 43 -25 c23 -14 47 -25 53 -25 5 0 20 19 32 41 l24 41
-44 38 -43 37 21 49 c23 52 25 53 99 40 l41 -7 12 45 c16 64 16 63 -39 81
l-50 17 0 53 c0 63 13 75 79 75 l41 0 0 61 0 61 -60 -4 c-58 -4 -61 -3 -66 21
-3 14 -9 42 -14 61 -11 39 -1 50 40 50 23 -1 23 -2 8 -14 -13 -9 -16 -22 -11
-48 5 -35 7 -36 57 -40 28 -2 53 -3 55 -1 2 1 10 40 18 85 19 112 26 121 109
137 38 8 116 29 173 47 57 19 107 34 111 34 5 0 34 -43 66 -95 32 -52 62 -95
67 -95 12 0 279 110 289 119 5 4 -19 63 -52 131 -33 68 -60 130 -60 136 0 13
153 28 230 22 l45 -3 22 -80 c32 -119 32 -119 -36 -155 -33 -18 -69 -42 -81
-54 -19 -21 -20 -28 -10 -70 11 -51 56 -146 68 -146 4 0 49 11 100 25 51 14
97 25 101 25 5 0 31 -36 59 -80 l52 -81 -61 -74 c-33 -41 -59 -82 -57 -91 4
-19 119 -152 133 -153 6 -1 47 22 93 49 47 28 89 47 95 43 11 -7 113 -87 130
-102 4 -4 -6 -47 -23 -96 -16 -49 -30 -94 -30 -101 0 -13 157 -104 178 -104 6
0 38 36 72 79 l61 79 82 -28 82 -28 3 -83 c3 -125 4 -126 65 -138 28 -5 75
-12 104 -16 l52 -6 16 58 c29 102 37 128 48 141 6 8 39 12 96 12 l86 0 35 -92
36 -93 39 2 c22 2 71 10 109 19 l69 17 -6 102 -7 102 82 38 82 37 69 -71 c38
-39 73 -71 78 -71 19 0 164 107 163 120 -1 8 -17 50 -35 94 l-34 79 64 58 c35
33 68 59 73 59 5 0 44 -20 87 -45 43 -25 82 -45 87 -45 9 0 51 52 103 128 l22
32 -70 77 -71 76 43 80 42 79 80 -7 c139 -13 127 -17 151 50 12 33 25 78 28
101 l7 41 -92 44 -91 44 6 73 c4 40 9 79 12 87 8 20 194 61 204 45 4 -7 10
-71 14 -144 13 -283 28 -545 35 -620 l7 -79 -48 -30 c-26 -17 -48 -32 -48 -34
0 -11 58 -115 98 -175 50 -75 50 -83 -2 -145 -19 -23 -48 -38 -104 -57 -102
-33 -223 -63 -295 -71 -48 -5 -60 -10 -67 -30 -13 -34 -3 -57 35 -82 112 -73
309 -89 485 -40 116 33 120 33 120 2 l0 -25 154 0 153 0 6 90 c4 51 3 100 -3
115 -26 67 8 276 58 370 l30 56 -73 49 c-41 27 -76 54 -79 58 -3 5 4 130 14
278 11 148 20 328 20 399 0 120 -3 137 -31 215 -17 47 -33 104 -36 126 -5 45
25 169 77 313 32 88 37 138 19 189 -6 17 -9 37 -7 44 3 7 10 -5 17 -27 14 -43
180 -433 213 -500 11 -22 36 -56 55 -76 l35 -37 -26 -38 c-14 -21 -26 -52 -26
-68 0 -17 59 -191 130 -388 l130 -358 -35 -46 c-19 -25 -35 -55 -35 -66 0 -11
17 -38 38 -58 l38 -39 -43 -10 c-24 -6 -43 -16 -43 -21 0 -10 36 -108 64 -173
l16 -37 -46 -50 c-62 -67 -156 -100 -304 -107 -58 -3 -111 -10 -117 -15 -23
-19 -15 -72 15 -100 61 -57 160 -88 286 -88 63 0 253 26 330 46 20 5 25 0 35
-26 l11 -32 124 4 c68 2 127 6 131 9 3 4 8 29 12 58 4 39 1 65 -17 113 -37
101 -26 162 64 391 26 64 44 122 41 127 -3 6 -17 10 -29 10 -51 0 -65 27 -92
165 -93 489 -132 642 -209 811 l-33 72 26 25 c31 31 24 52 -22 71 -19 8 -37
22 -40 33 -3 10 -15 95 -26 188 -11 94 -36 283 -55 420 -19 138 -38 270 -41
295 -3 25 -12 52 -20 61 -13 15 -12 21 5 50 32 57 44 136 39 265 -6 132 -21
187 -68 246 -28 35 -29 37 -10 43 25 8 25 17 0 40 -32 29 -76 104 -111 190
-18 44 -42 90 -53 103 -15 17 -17 25 -8 34 19 19 14 34 -18 67 l-31 30 21 21
c25 25 25 35 -2 62 l-22 22 33 58 c32 59 32 60 14 86 -15 23 -18 51 -19 187
-1 130 -5 175 -23 240 -27 101 -66 184 -130 280 -28 42 -51 79 -51 84 0 12 86
41 121 41 47 0 80 -22 115 -77 44 -69 70 -76 129 -34 24 17 51 31 61 31 10 0
31 12 46 27 28 26 28 27 64 10 37 -18 54 -15 54 8 0 38 43 126 70 141 27 17
28 18 15 53 -15 45 -29 121 -21 121 3 0 22 -31 41 -70 19 -38 49 -85 65 -104
35 -39 109 -71 191 -82 61 -8 64 -19 -36 121 -100 139 -97 133 -85 212 25 155
-36 335 -130 383 -49 25 -186 44 -258 36 -74 -9 -212 -75 -245 -117 -14 -19
-38 -68 -52 -109 -47 -129 -102 -180 -251 -226 l-81 -25 -34 20 c-66 41 -139
18 -139 -43 0 -30 -5 -35 -52 -57 -29 -13 -75 -41 -102 -61 -28 -21 -80 -48
-116 -59 -54 -18 -76 -34 -131 -88 -73 -73 -100 -129 -125 -260 -9 -48 -26
-94 -49 -131 -52 -85 -101 -194 -148 -326 -34 -94 -47 -121 -67 -130 -14 -7
-63 -30 -110 -52 -50 -24 -135 -79 -205 -133 -150 -115 -277 -199 -380 -252
-71 -37 -87 -41 -146 -40 -59 0 -80 6 -174 52 -59 28 -119 51 -134 51 -14 0
-46 -14 -71 -30 l-45 -30 -3 136 c-1 75 0 139 2 142 3 2 63 12 135 21 71 9
132 19 136 22 5 6 -28 240 -41 296 -6 21 -9 22 -142 20 l-137 -2 -37 140 c-20
77 -37 148 -37 157 -1 22 65 61 142 84 39 13 57 23 57 35 0 9 -9 58 -20 110
-11 52 -20 106 -20 122 0 15 -3 27 -7 27 -5 -1 -70 -14 -146 -29 l-138 -28
-80 159 c-65 129 -77 160 -64 164 19 8 16 12 54 -63 17 -34 35 -64 40 -68 6
-3 27 1 47 10 50 21 59 19 111 -16 24 -17 63 -42 86 -54 l41 -24 45 43 c103
98 194 177 198 172 2 -2 19 -77 38 -166 18 -89 35 -163 37 -166 3 -2 57 -14
120 -27 l116 -24 81 131 c45 72 90 141 99 154 l18 23 45 -73 c26 -40 68 -109
94 -154 l48 -81 116 24 c63 13 118 27 122 31 3 4 14 45 23 92 31 149 49 225
57 234 4 4 70 -40 148 -99 l140 -107 83 56 c46 31 93 64 104 74 l22 17 -34
165 c-18 91 -34 166 -34 168 0 7 51 -2 185 -33 l150 -35 20 27 c11 15 41 61
67 102 l46 75 -54 76 c-123 171 -144 201 -144 209 0 4 78 21 172 37 l173 29
26 128 27 129 -58 36 c-32 21 -101 62 -154 92 -52 30 -95 57 -96 60 0 6 256
165 283 176 9 3 17 14 17 24 0 19 -40 233 -45 238 -1 2 -78 18 -170 37 -92 19
-170 37 -173 39 -5 5 40 67 158 219 l53 67 -30 48 c-16 26 -47 75 -69 110 -21
34 -44 62 -51 62 -6 0 -76 -13 -155 -30 -210 -44 -193 -58 -147 123 21 83 39
162 39 174 0 16 -26 39 -106 93 l-105 72 -140 -101 c-132 -95 -159 -111 -159
-93 0 4 -14 72 -30 152 -16 80 -30 155 -30 167 0 23 -14 27 -160 53 -36 6 -72
13 -81 16 -12 3 -40 -34 -110 -146 -52 -82 -96 -150 -99 -150 -3 1 -47 68 -98
150 -52 83 -100 150 -107 150 -15 0 -201 -37 -227 -46 -10 -3 -18 -13 -18 -23
0 -22 -59 -323 -64 -328 -5 -5 -85 47 -213 139 l-82 59 -106 -71 c-58 -39
-105 -74 -105 -79 0 -11 69 -308 76 -326 8 -21 -4 -20 -195 15 -91 16 -166 29
-167 27 -10 -12 -134 -208 -134 -213 0 -3 45 -64 100 -135 55 -70 103 -134
105 -141 4 -10 -40 -22 -161 -48 -91 -19 -168 -39 -172 -45 -3 -5 -16 -62 -27
-126 l-21 -116 30 -20 c17 -11 84 -51 148 -89 65 -38 118 -72 118 -76 0 -4
-61 -51 -135 -104 -74 -53 -137 -99 -138 -102 -2 -4 2 -63 10 -132 15 -139 14
-202 -3 -207 -8 -3 -18 43 -30 137 -10 77 -21 140 -24 140 -3 0 -49 -32 -102
-70 -53 -39 -102 -70 -108 -70 -5 0 -36 17 -68 39 -31 21 -97 64 -145 95 -102
65 -100 49 -25 200 27 54 48 99 46 101 -2 1 -67 35 -146 74 -98 49 -185 84
-279 111 -75 22 -139 40 -144 40 -4 0 -42 -54 -84 -120 -86 -134 -70 -126
-190 -94 -27 7 -88 20 -135 29 -50 10 -90 23 -97 33 -9 11 -13 56 -13 139 l0
123 -139 0 -139 0 -10 -27 c-6 -16 -25 -74 -43 -131 -17 -57 -36 -105 -42
-107 -7 -2 -78 -8 -158 -14 -80 -6 -166 -14 -190 -17 l-45 -6 -21 73 c-12 41
-24 89 -27 108 -5 29 -4 32 12 26 52 -22 60 -17 232 136 196 174 406 487 535
799 80 194 101 239 128 275 39 52 129 145 140 145 5 0 -16 -35 -46 -77 -90
-129 -188 -315 -174 -329 3 -3 43 -18 90 -34 74 -25 90 -27 122 -17 32 10 42
8 81 -12 24 -13 76 -60 116 -104 40 -44 86 -88 103 -98 40 -25 83 -24 112 3
13 12 25 19 28 16 3 -3 -8 -37 -24 -76 -50 -121 -171 -505 -171 -542 0 -4 13
-5 29 -2 23 3 30 -1 36 -17 5 -16 29 -28 108 -52 103 -31 507 -222 507 -239 0
-5 -23 -63 -51 -130 -29 -67 -48 -125 -43 -129 5 -3 56 -37 113 -74 90 -59
105 -66 121 -55 136 101 217 162 224 168 19 18 -227 340 -320 418 -24 20 -76
53 -114 72 l-69 36 48 119 c60 149 147 324 240 479 96 162 114 211 114 311 0
90 -18 147 -79 243 -135 212 -544 474 -949 607 -186 62 -295 79 -505 79 l-175
1 -71 46 c-87 57 -106 83 -133 182 -27 99 -52 147 -93 182 -82 69 -233 108
-332 86 -66 -15 -103 -43 -156 -120 -21 -32 -63 -76 -93 -99 -30 -24 -68 -61
-83 -84 -25 -35 -29 -51 -29 -107 0 -43 6 -78 18 -100 9 -19 15 -36 13 -38 -6
-6 -388 -124 -421 -130 l-30 -6 20 23 c11 12 40 34 65 48 25 14 47 27 49 29 6
5 -50 85 -57 81 -4 -2 -31 -16 -59 -31 -29 -15 -53 -23 -53 -18 0 13 72 118
179 260 l85 115 -104 98 c-58 54 -107 98 -110 98 -3 0 -82 -63 -175 -140 -94
-77 -172 -135 -174 -129 -2 6 11 33 27 60 l31 49 -22 11 c-12 7 -31 18 -43 26
-19 12 -23 9 -59 -42 -20 -30 -43 -55 -50 -55 -8 0 6 72 42 226 31 130 50 231
45 236 -11 11 -243 108 -257 108 -5 -1 -50 -73 -100 -161 -49 -88 -100 -172
-113 -187 l-23 -27 6 57 6 57 -43 8 -43 9 -20 -55 c-21 -58 -45 -79 -45 -39 0
13 -14 112 -32 221 l-32 197 -115 0 c-64 0 -125 3 -137 6 -18 5 -22 0 -27 -26z
m368 -880 c189 -51 326 -130 466 -270 143 -141 227 -284 280 -479 30 -108 37
-343 15 -464 -63 -334 -269 -603 -571 -748 -156 -75 -246 -94 -445 -93 -200 1
-270 16 -435 98 -265 131 -455 360 -541 651 -35 121 -45 354 -20 488 77 408
372 721 771 821 93 23 111 24 260 21 106 -2 160 -8 220 -25z m1585 -266 c85
-48 98 -60 126 -109 40 -71 37 -69 73 -51 44 23 95 10 175 -46 64 -45 93 -37
146 41 19 28 38 51 42 51 16 0 58 -79 83 -155 31 -93 33 -157 10 -281 -29
-158 -120 -398 -210 -559 -45 -81 -151 -195 -260 -280 -84 -66 -266 -187 -272
-181 -2 2 15 57 38 122 22 66 43 126 45 134 3 10 -47 48 -163 121 -93 58 -187
117 -210 130 -24 13 -43 28 -43 33 0 8 41 5 107 -9 30 -7 32 -5 42 30 10 38 8
55 -9 55 -5 0 -21 5 -37 11 -28 11 -28 11 -6 20 13 4 105 22 205 40 101 17
186 33 190 36 9 5 6 278 -3 287 -5 5 -295 55 -411 71 -27 3 -48 10 -48 15 0 9
85 40 111 40 26 0 28 10 12 63 l-14 47 -42 -6 c-23 -4 -40 -4 -37 -1 3 4 84
56 180 116 153 96 175 113 172 133 -6 38 -42 94 -74 112 -34 20 -68 71 -68
101 0 13 10 3 28 -29 23 -42 40 -56 122 -102z m4397 -1120 c92 -19 230 -86
313 -153 162 -128 279 -329 311 -533 13 -82 6 -290 -11 -353 -89 -319 -315
-534 -633 -601 -100 -21 -257 -18 -353 6 -102 26 -242 95 -321 159 -127 104
-242 291 -280 456 -24 108 -24 303 1 400 39 149 108 275 210 383 200 211 475
296 763 236z m-4713 -409 c108 -32 196 -61 196 -65 0 -13 -215 -108 -270 -120
-30 -6 -75 -10 -100 -8 -41 3 -48 8 -102 72 -84 100 -77 133 11 51 l48 -44 31
44 31 44 -55 41 c-97 73 -86 72 210 -15z m586 -79 c-19 -18 -97 -43 -235 -76
-71 -17 -109 -31 -107 -39 7 -32 21 -162 24 -215 l3 -59 -84 -18 c-47 -10 -86
-17 -88 -15 -5 5 60 43 103 61 40 16 40 14 18 166 -8 62 -12 115 -7 119 11 10
73 24 233 56 74 14 137 28 139 30 2 2 7 4 10 4 3 0 -1 -6 -9 -14z m-725 -236
c-145 -68 -289 -129 -294 -125 -8 9 32 33 109 66 140 59 285 106 185 59z
m2333 -6 c2 -1 -6 -50 -18 -108 -25 -117 -47 -144 -36 -45 3 34 6 86 6 116 0
52 1 54 23 47 12 -3 24 -8 25 -10z m-4578 -82 c0 -4 -14 -30 -31 -57 -34 -54
-34 -56 33 -91 27 -14 28 -13 47 24 11 21 27 44 35 51 14 11 16 11 16 -5 0
-11 -23 -111 -50 -223 -28 -113 -47 -208 -43 -212 5 -4 67 -34 140 -67 l132
-59 105 176 c57 97 112 185 121 196 15 19 16 17 11 -42 -5 -59 -4 -63 17 -68
58 -12 59 -12 80 43 11 28 23 52 27 52 10 0 23 -57 51 -215 11 -66 25 -144 30
-172 l10 -53 92 0 c51 0 115 -3 143 -6 l52 -7 11 74 c20 124 62 343 69 353 7
12 30 -49 31 -83 1 -16 5 -21 15 -18 8 3 31 9 51 13 l37 7 -5 64 c-3 44 -1 63
6 60 6 -2 57 -82 114 -178 56 -96 106 -180 110 -187 6 -10 14 -10 40 0 l31 12
-25 50 c-49 97 -73 128 -94 123 -32 -8 -22 10 27 50 26 21 80 66 120 100 41
34 81 66 91 71 15 9 15 15 -2 86 -9 42 -15 79 -12 82 3 3 14 -5 25 -18 11 -12
31 -36 44 -52 27 -32 45 -31 93 8 l29 23 -27 32 c-36 43 -34 55 6 35 42 -21
60 -44 108 -138 22 -44 49 -93 61 -109 27 -38 22 -46 -71 -111 l-74 -51 -76
81 -76 81 -116 -76 -116 -77 79 -132 78 -132 -72 -71 c-40 -39 -97 -90 -126
-112 l-54 -41 -127 64 c-70 34 -132 61 -138 59 -11 -4 -203 -223 -203 -232 0
-3 229 -145 247 -152 1 -1 -35 -73 -80 -162 l-82 -160 -105 28 c-58 15 -126
34 -152 42 l-47 15 -50 -127 c-27 -69 -52 -133 -56 -142 -5 -12 15 -23 92 -52
163 -59 183 -64 195 -43 5 10 30 41 54 69 24 29 58 76 75 105 32 54 41 59 85
42 20 -8 40 -7 79 5 89 25 108 18 130 -49 9 -27 20 -34 85 -57 41 -14 98 -38
127 -52 l51 -27 42 78 c50 93 155 251 207 311 l38 43 72 -83 c155 -182 253
-305 253 -319 0 -8 -7 -28 -16 -45 -76 -143 -129 -255 -158 -335 -20 -52 -44
-101 -53 -108 -21 -15 -63 -10 -233 28 -192 43 -184 43 -226 25 -80 -34 -90
-35 -182 -8 -77 22 -99 25 -192 20 -109 -5 -235 -36 -325 -78 -36 -17 -47 -28
-55 -58 l-10 -37 -114 -28 c-63 -15 -123 -26 -133 -23 -17 4 -16 5 2 12 138
54 238 100 242 113 16 41 -66 335 -91 327 -29 -11 -650 -135 -669 -134 -16 0
-39 25 -87 91 -36 51 -96 130 -135 177 -99 121 -105 132 -51 81 26 -25 97
-102 158 -172 60 -71 117 -128 126 -128 9 0 68 12 130 27 89 22 112 31 112 45
0 36 -42 235 -67 312 -34 107 -81 203 -112 228 -18 14 -34 18 -57 14 -28 -6
-32 -3 -49 34 -10 22 -28 47 -41 55 -28 18 -33 75 -10 129 14 34 71 66 119 66
12 0 33 6 47 13 21 11 25 21 27 62 5 93 3 137 -7 156 -9 15 -4 23 30 45 23 15
37 31 33 38 -4 6 -25 36 -48 66 -72 95 -79 108 -65 125 16 20 1 64 -49 139
-31 47 -38 63 -30 78 5 10 7 34 3 53 l-6 35 -57 0 c-51 0 -59 3 -71 25 l-13
24 -28 -20 c-24 -17 -32 -18 -51 -8 -22 12 -22 12 17 46 22 19 93 75 159 124
109 82 146 102 146 81z m3673 -22 c4 -4 5 -20 1 -35 -7 -27 -8 -27 -67 -21
-33 3 -84 6 -113 6 l-54 0 0 33 0 32 113 -3 c61 -2 116 -7 120 -12z m-651 -45
c3 -14 3 -27 -1 -29 -3 -2 -54 -13 -113 -25 -59 -12 -114 -24 -122 -27 -10 -4
-17 2 -22 21 -3 14 -4 28 -1 31 6 6 211 51 238 53 10 1 19 -9 21 -24z m1153
-40 c33 -8 73 -14 89 -15 26 0 28 -2 21 -27 -3 -16 -10 -32 -14 -36 -5 -5 -40
1 -78 12 -39 12 -78 21 -87 21 -11 0 -16 9 -16 30 0 34 3 35 85 15z m-1815
-175 c0 -15 -148 -90 -177 -90 -11 0 -31 48 -22 53 2 2 45 19 94 39 90 36 104
36 105 -2z m2303 -4 c35 -18 70 -35 78 -38 11 -4 9 -11 -10 -32 -14 -14 -28
-26 -32 -26 -6 0 -124 65 -137 76 -4 3 28 54 34 54 2 0 32 -15 67 -34z m995
-252 c28 -4 52 -11 52 -15 0 -5 -38 -72 -85 -150 l-84 -142 67 -76 c45 -52 72
-75 86 -73 10 1 59 18 107 38 l88 36 74 -42 c116 -66 285 -216 265 -235 -2 -3
-51 24 -109 60 -57 36 -107 65 -110 65 -4 0 -4 -21 -1 -46 4 -43 4 -46 -14
-36 -10 6 -48 46 -84 91 -36 44 -70 80 -77 81 -6 0 -47 -13 -90 -30 -42 -16
-83 -30 -89 -30 -6 0 -29 21 -50 47 -22 27 -60 71 -86 100 l-47 52 51 88 c27
48 54 93 60 100 7 8 0 26 -21 57 -17 24 -31 49 -31 55 0 12 49 14 128 5z
m-2271 -103 c-7 -89 -53 -370 -68 -418 -12 -36 -8 -35 -144 -64 -273 -58 -485
-153 -729 -328 -55 -39 -105 -71 -111 -71 -11 0 -59 52 -233 252 -56 65 -102
122 -102 127 0 19 180 165 300 243 308 201 707 333 1014 337 l79 1 -6 -79z
m-1562 49 c21 -24 31 -12 -93 -120 -81 -70 -84 -72 -103 -54 -11 10 -18 22
-17 26 4 11 180 167 189 167 3 1 14 -8 24 -19z m2088 -26 c306 -65 595 -206
864 -422 101 -82 263 -245 263 -266 0 -6 -62 -47 -138 -90 -75 -43 -168 -97
-206 -120 -103 -60 -118 -57 -246 40 -234 177 -473 290 -744 349 -95 21 -136
53 -136 107 0 41 56 396 66 422 6 17 14 18 83 12 42 -4 129 -18 194 -32z
m1267 -32 l71 -64 -25 -19 -25 -20 -68 57 c-37 31 -70 58 -71 60 -6 4 32 53
40 51 4 -1 39 -31 78 -65z m-3809 -361 l23 -19 -73 -98 c-41 -55 -76 -101 -78
-103 -1 -3 -14 6 -27 18 l-25 23 66 85 c35 47 67 92 70 99 7 19 16 18 44 -5z
m4272 -164 c47 -74 49 -79 31 -92 -11 -8 -22 -13 -26 -12 -3 1 -31 37 -62 79
l-55 78 22 15 c12 8 26 14 31 12 5 -2 31 -38 59 -80z m-389 -435 c153 -262
262 -589 297 -897 25 -220 8 -578 -28 -592 -19 -8 -380 66 -430 87 -64 28 -73
55 -73 212 0 339 -69 623 -227 932 -37 71 -43 90 -32 97 83 55 422 238 441
239 3 0 27 -35 52 -78z m685 -91 c32 -94 32 -106 -3 -113 -15 -2 -25 14 -56
97 l-38 100 27 12 c14 6 29 8 32 5 3 -4 20 -49 38 -101z m-2264 24 c232 -59
447 -201 588 -390 344 -460 267 -1114 -173 -1467 -140 -113 -312 -189 -493
-218 -121 -20 -331 -8 -440 24 -388 115 -682 440 -751 830 -24 135 -28 210
-16 312 44 366 252 664 577 828 225 113 472 141 708 81z m4406 -417 c-48 -126
-179 -383 -242 -474 -19 -28 -25 -45 -18 -55 5 -8 28 -61 50 -119 41 -101 42
-109 40 -207 l-1 -102 33 -38 c45 -50 54 -68 62 -128 12 -88 26 -129 56 -167
l30 -38 -25 -37 c-20 -32 -26 -60 -35 -168 -6 -71 -31 -269 -56 -440 -49 -342
-65 -497 -65 -624 l0 -84 -52 7 c-29 3 -65 6 -79 6 -23 0 -28 6 -42 58 -8 31
-18 73 -22 93 l-7 36 90 52 c88 52 90 54 82 83 -17 58 -73 168 -86 168 -7 0
-52 -9 -99 -20 -47 -11 -90 -20 -96 -20 -5 0 -31 35 -58 77 l-49 77 64 84 65
83 -30 37 c-16 20 -49 56 -73 80 l-44 42 -87 -55 -87 -56 -73 58 c-39 31 -74
59 -77 61 -2 1 11 46 30 99 l33 96 -24 20 c-25 20 -160 91 -163 85 -1 -2 -30
-38 -64 -80 l-62 -77 -90 31 -90 30 0 78 c0 126 -4 137 -59 149 -25 5 -74 12
-107 16 l-61 6 -33 -103 c-40 -125 -116 -329 -127 -338 -4 -4 -57 2 -118 15
-60 12 -131 25 -157 29 l-47 7 -55 -108 -56 -108 42 -39 c103 -93 141 -121
134 -99 -6 19 0 24 50 43 135 50 325 65 452 35 145 -34 346 -138 420 -217 l22
-25 -152 -117 c-111 -85 -159 -116 -173 -112 -11 3 -54 17 -95 32 -69 24 -84
26 -193 22 l-118 -5 -67 98 c-37 54 -70 99 -73 99 -6 0 -149 -188 -155 -205
-3 -6 14 -39 36 -73 l40 -63 -40 -67 c-85 -141 -98 -275 -44 -459 5 -19 -15
-38 -146 -142 -84 -67 -155 -121 -160 -121 -14 0 -118 216 -140 291 -37 124
-29 123 -131 22 -49 -48 -94 -90 -100 -92 -27 -9 26 109 85 185 25 34 46 65
46 68 0 4 -22 39 -50 78 -27 39 -50 77 -50 85 0 28 27 11 86 -53 l61 -68 41
35 c36 29 41 38 36 64 -3 17 4 63 15 105 12 41 21 105 21 142 0 79 9 105 56
169 l35 48 56 -25 c31 -13 79 -38 106 -55 l49 -30 21 28 c12 15 49 62 83 103
33 42 63 81 67 87 6 9 -76 86 -200 188 l-24 20 71 138 c39 75 73 137 74 137 2
0 58 -11 126 -25 68 -14 131 -25 141 -25 15 0 26 26 58 128 55 175 56 161 -13
182 -83 26 -86 32 -40 82 21 24 55 64 74 90 44 59 84 81 185 103 44 9 123 37
175 62 52 25 167 70 255 100 207 71 344 138 530 259 83 54 180 113 217 131 58
30 72 42 100 91 18 32 69 116 114 187 45 72 96 160 114 195 31 62 48 90 56 90
2 0 0 -10 -5 -22z m-1985 -203 c11 -101 8 -114 -23 -115 -18 0 -21 10 -35 109
-10 79 -10 94 3 102 35 22 44 6 55 -96z m-5275 -175 c-3 -130 -8 -160 -26
-160 -7 0 -21 -3 -31 -7 -16 -6 -17 3 -11 130 3 75 8 141 12 147 4 6 19 10 33
8 l26 -3 -3 -115z m774 67 c256 -55 240 -38 248 -272 10 -307 63 -518 195
-784 65 -129 69 -146 38 -174 -34 -32 -397 -227 -421 -227 -22 0 -115 173
-181 337 -101 253 -155 498 -169 773 -6 117 7 370 21 392 7 12 19 10 269 -45z
m4526 -462 c-3 -71 -5 -75 -37 -75 -23 0 -24 3 -24 63 0 72 4 79 39 75 24 -3
25 -6 22 -63z m-5062 -187 c28 -34 48 -64 45 -67 -7 -7 -114 108 -114 121 0
21 23 3 69 -54z m-255 -27 c-15 -34 -29 -59 -31 -57 -7 6 16 76 34 104 27 43
25 14 -3 -47z m187 -87 c8 -89 12 -101 34 -117 30 -23 32 -40 5 -58 -20 -13
-18 -16 34 -56 90 -69 102 -112 87 -325 -9 -116 -14 -145 -36 -188 l-26 -51
26 -67 c59 -152 112 -242 143 -242 5 0 17 33 27 73 9 39 19 79 21 88 4 15 11
15 72 -3 37 -11 68 -22 70 -23 2 -2 -4 -34 -13 -72 -9 -37 -18 -76 -20 -86 -2
-13 10 -27 42 -47 25 -16 50 -31 56 -33 6 -2 7 -8 3 -15 -8 -13 -136 45 -136
63 0 5 9 39 20 75 27 89 26 95 -19 108 -21 7 -41 12 -43 12 -3 0 -15 -38 -28
-85 -26 -97 -25 -96 -122 -69 -59 17 -65 23 -49 53 14 24 -43 141 -69 141 -40
0 -50 -11 -49 -54 0 -22 3 -35 6 -28 2 6 9 12 15 12 12 0 1 -80 -13 -95 -13
-14 -24 5 -39 72 -17 77 -7 121 28 125 21 2 28 9 30 32 3 23 0 28 -12 23 -25
-10 -20 22 17 96 33 64 34 72 40 219 9 213 -3 248 -86 248 -34 0 -35 2 -39 43
-3 23 -8 50 -12 60 -7 14 -5 16 10 10 13 -5 16 -3 11 10 -10 26 -21 223 -13
243 11 29 17 9 27 -92z m4209 -125 c80 -17 171 -37 203 -46 67 -18 67 -2 0
-173 -51 -131 -111 -247 -190 -370 -62 -96 -174 -238 -225 -288 l-35 -33 -145
168 c-79 92 -152 180 -161 194 -23 35 -15 54 75 193 39 59 97 161 129 225 99
195 81 174 147 166 31 -4 122 -20 202 -36z m816 -160 c2 -5 -7 -42 -22 -84
-20 -56 -31 -75 -45 -75 -10 0 -21 4 -24 10 -5 8 29 141 41 162 5 8 43 -2 50
-13z m-4999 -106 c9 -38 10 -212 0 -246 -4 -16 -13 -27 -19 -25 -6 2 -27 42
-48 90 -34 78 -35 86 -19 96 9 6 27 34 40 61 26 58 36 63 46 24z m1314 -313
c258 -202 430 -298 662 -370 232 -72 228 -68 203 -240 -9 -63 -26 -166 -38
-229 l-21 -114 -56 6 c-155 17 -440 113 -628 212 -220 116 -450 293 -590 452
l-57 65 23 19 c13 11 69 45 125 76 55 31 146 82 200 115 55 32 103 58 107 58
3 0 35 -22 70 -50z m3464 -93 c17 -13 16 -17 -20 -76 -21 -34 -42 -64 -46 -66
-12 -8 -40 7 -37 19 5 19 73 136 79 136 3 0 13 -6 24 -13z m-1312 -64 c70 -76
297 -337 297 -343 0 -3 -29 -26 -63 -51 -286 -214 -618 -352 -969 -403 -142
-21 -296 -31 -342 -22 -37 7 -37 8 -32 44 33 217 59 368 72 423 l16 66 66 7
c277 28 573 129 807 276 44 27 85 50 92 50 7 0 32 -21 56 -47z m-2834 -368
l-32 -56 29 -30 c15 -16 24 -29 20 -29 -14 0 -66 44 -66 56 0 19 74 138 78
126 2 -6 -11 -36 -29 -67z m3876 -5 c17 -19 17 -21 -22 -63 -22 -24 -45 -52
-51 -63 -11 -19 -11 -19 -33 2 l-21 22 48 60 c27 33 52 61 55 61 3 1 14 -8 24
-19z m-3606 -77 c2 -2 1 -6 -2 -10 -4 -3 -16 2 -27 12 -21 19 -17 22 -70 -45
-14 -17 -81 -62 -86 -57 -4 3 11 21 32 39 56 48 94 89 94 101 0 6 12 0 28 -14
15 -13 29 -25 31 -26z m-751 -29 c38 -15 42 -42 11 -70 -28 -26 -66 -92 -74
-131 -6 -30 -10 -33 -41 -33 l-34 0 0 130 0 131 53 -7 c28 -4 67 -13 85 -20z
m6072 -44 c62 -122 82 -204 87 -351 8 -204 -28 -349 -129 -516 -33 -56 -153
-193 -168 -193 -4 0 -58 79 -120 175 l-111 175 20 29 c39 55 80 153 91 222 13
74 2 181 -25 245 l-14 34 162 124 c89 68 165 122 170 119 4 -2 21 -31 37 -63z
m-6420 40 c0 -5 -4 -10 -10 -10 -5 0 -10 5 -10 10 0 6 5 10 10 10 6 0 10 -4
10 -10z m-115 -199 l46 -116 -28 -20 c-15 -11 -49 -39 -74 -62 -25 -24 -56
-43 -67 -43 -27 0 -200 74 -220 93 -12 13 -12 19 2 46 27 51 136 161 206 207
78 51 72 57 135 -105z m718 99 c88 -55 167 -141 167 -180 0 -5 -11 -10 -25
-10 -33 0 -32 -16 6 -74 16 -27 29 -49 27 -51 -2 -1 -23 -12 -46 -24 -45 -23
-64 -23 -37 -1 22 19 19 31 -27 95 l-42 58 -54 -58 -53 -58 -35 34 c-19 18
-34 38 -34 44 0 6 22 46 50 90 l50 78 -19 31 c-37 61 -2 73 72 26z m5097 -41
c21 -7 59 -28 86 -48 166 -127 146 -395 -37 -496 -48 -27 -63 -30 -139 -30
-68 0 -93 5 -125 22 -117 63 -183 202 -155 325 24 103 97 191 184 222 50 18
136 20 186 5z m-4680 -53 c-1 -6 -10 0 -20 13 -11 13 -20 28 -20 35 1 6 10 0
20 -13 11 -13 20 -28 20 -35z m220 -36 c0 -5 -11 -10 -25 -10 -14 0 -48 -12
-76 -26 -28 -14 -54 -23 -57 -20 -7 8 -5 10 48 40 45 26 110 35 110 16z m3128
-2 c18 -18 16 -22 -44 -72 -44 -36 -60 -44 -70 -35 -23 19 -16 32 39 76 58 48
58 48 75 31z m-1738 -167 c37 -8 37 -8 25 -88 -5 -29 -3 -32 30 -43 38 -13 36
-14 90 57 14 18 74 0 109 -32 l28 -26 -26 -43 -25 -43 32 -31 c18 -18 37 -32
43 -32 6 0 25 16 44 35 l34 35 48 -47 c26 -26 48 -53 48 -59 0 -7 -16 -26 -36
-42 l-36 -30 27 -41 c15 -22 31 -41 35 -41 4 0 26 7 49 15 l41 14 16 -37 c17
-40 30 -102 21 -102 -3 0 -13 22 -22 50 -9 27 -20 52 -25 55 -4 3 -24 -2 -44
-10 -19 -8 -38 -15 -40 -15 -9 0 -76 104 -76 117 0 6 16 21 35 33 19 12 35 26
35 32 0 5 -16 26 -36 46 l-35 35 -38 -37 c-44 -43 -53 -42 -110 17 l-34 36 23
36 c27 44 22 58 -29 85 l-41 20 -25 -49 -25 -50 -61 21 c-52 18 -60 23 -56 42
22 95 24 92 -43 97 l-45 4 -10 -50 -11 -50 -69 0 -70 0 -8 53 c-9 56 -13 58
-76 46 -29 -6 -31 -9 -31 -49 0 -53 -22 -80 -74 -94 -47 -12 -60 -5 -78 45
-10 28 -16 33 -33 28 -27 -9 -95 -43 -95 -49 0 -2 11 -21 25 -41 14 -20 25
-43 25 -50 0 -18 -89 -94 -111 -94 -9 0 -29 14 -42 30 -14 17 -29 30 -34 30
-13 0 -83 -60 -83 -71 0 -5 18 -21 40 -35 22 -15 40 -31 40 -36 0 -11 -38 8
-67 35 -19 17 -25 18 -39 6 -15 -12 -16 -12 -10 7 7 22 8 21 -156 92 -50 22
-57 35 -33 66 13 17 19 16 129 -28 l115 -47 40 23 40 23 32 -33 c38 -39 49
-40 88 -6 38 31 38 43 6 74 -45 42 -31 67 62 114 l53 26 25 -40 c25 -40 39
-45 82 -34 19 5 23 16 29 64 7 66 13 70 97 70 51 0 51 -1 62 -62 6 -38 6 -38
55 -38 38 0 50 4 50 15 0 8 6 33 12 55 14 44 7 43 118 21z m-2345 -105 c170
-80 203 -310 61 -432 -109 -94 -265 -81 -362 29 -80 91 -86 212 -17 319 27 40
85 84 129 98 57 17 137 11 189 -14z m3695 -22 c0 -7 -19 -23 -42 -35 -24 -12
-55 -30 -70 -40 -33 -24 -45 -24 -57 0 -9 17 -1 25 66 64 57 34 81 43 90 35 7
-6 13 -17 13 -24z m-4440 5 c30 -11 80 -34 111 -51 l55 -30 -2 -117 -3 -116
-73 -37 c-105 -53 -178 -75 -189 -57 -40 66 -36 351 7 420 8 14 35 11 94 -12z
m1384 -13 c-9 -22 -113 -61 -127 -47 -6 6 -9 11 -6 11 2 0 31 11 64 25 70 29
76 30 69 11z m25 -256 c-10 -116 -24 -160 -51 -160 -24 0 -229 86 -244 103 -8
9 -8 22 -1 47 l11 35 4 -32 c2 -21 10 -34 23 -38 11 -4 22 -5 23 -3 2 1 0 35
-5 73 -6 46 -5 81 2 103 16 49 7 58 -29 27 -24 -20 -32 -23 -32 -11 0 16 67
56 93 56 7 0 31 -15 53 -34 l39 -34 55 40 55 39 6 -58 c3 -32 2 -101 -2 -153z
m-274 103 c10 -13 10 -21 1 -35 -17 -28 -26 -22 -26 17 0 39 7 43 25 18z
m1855 -13 c0 -5 -13 -51 -30 -102 -16 -51 -30 -98 -30 -105 0 -8 -13 -13 -33
-13 -18 0 -57 -7 -87 -15 -30 -8 -64 -17 -75 -20 -15 -4 -36 12 -89 70 l-68
76 23 26 c54 57 164 91 297 92 52 1 92 -3 92 -9z m1014 -26 c3 -9 4 -20 1 -24
-6 -10 -144 -55 -149 -49 -2 2 -6 12 -8 23 -2 14 10 23 57 41 74 28 91 29 99
9z m-763 -94 c35 -28 74 -63 86 -79 l21 -27 -134 3 c-104 2 -134 0 -134 -10 0
-7 22 -35 49 -61 l49 -49 47 12 c26 6 70 21 98 31 49 19 53 19 64 3 7 -9 11
-18 9 -20 -2 -2 -55 -19 -117 -37 -103 -30 -115 -32 -124 -17 -16 26 -89 98
-105 103 -14 4 -8 35 46 226 5 18 66 -15 145 -78z m2604 -39 c3 -5 36 -20 73
-32 75 -26 224 -31 274 -11 27 11 29 9 66 -46 45 -67 182 -290 182 -297 0 -9
-167 -56 -239 -66 -229 -33 -492 43 -661 189 l-35 31 25 25 c45 45 275 215
292 216 9 0 19 -4 23 -9z m-3282 -114 l60 -77 -25 -57 c-14 -32 -28 -70 -32
-84 -5 -23 -15 -29 -68 -42 -35 -9 -85 -19 -111 -23 l-49 -7 7 59 c9 80 22
127 51 188 29 62 82 128 97 123 6 -2 38 -38 70 -80z m-2266 -104 c43 -43 76
-85 75 -93 -8 -42 -89 -243 -99 -247 -17 -7 -120 67 -182 130 -56 57 -121 151
-121 174 0 7 19 22 43 34 40 21 184 77 199 79 4 0 42 -35 85 -77z m855 41 c86
-34 158 -71 158 -80 0 -29 -86 -142 -154 -204 -56 -51 -135 -102 -146 -95 -16
10 -40 62 -80 173 -35 95 -36 102 -18 102 22 0 124 93 133 121 4 11 9 19 12
19 3 0 46 -16 95 -36z m1830 -69 c45 -30 67 -62 79 -112 27 -123 -90 -235
-212 -203 -122 33 -175 152 -114 255 54 93 159 118 247 60z m452 -57 c3 -13 6
-57 6 -99 0 -120 -33 -208 -118 -314 l-23 -28 -35 34 c-71 68 -117 129 -106
142 17 22 35 91 41 157 l6 64 65 22 c88 31 100 30 100 -3 0 -48 11 -73 31 -73
23 0 25 27 4 77 -19 44 -19 43 4 43 11 0 21 -9 25 -22z m-2629 -182 c31 -71
53 -132 48 -137 -24 -24 -141 -41 -248 -36 -116 5 -175 20 -175 43 0 20 54
173 78 219 l20 40 111 0 110 0 56 -129z m1808 -69 c21 -30 48 -64 61 -76 l24
-23 -25 -86 c-13 -48 -27 -97 -30 -110 -3 -12 -9 -25 -14 -28 -23 -14 -151
102 -202 182 -27 44 -70 154 -63 162 9 8 128 30 172 31 38 1 43 -2 77 -52z
m511 -206 l78 -78 -29 -20 c-106 -76 -262 -110 -376 -84 -21 5 -40 11 -43 13
-5 6 31 134 52 188 l16 40 77 1 c42 1 87 5 101 9 14 4 30 8 35 9 6 1 46 -34
89 -78z"/>
<path d="M3903 7029 c-112 -58 -136 -77 -174 -132 -41 -61 -63 -76 -166 -117
-46 -18 -83 -34 -83 -35 0 -1 8 -26 19 -56 10 -30 26 -94 36 -144 9 -49 18
-91 20 -93 1 -1 42 13 91 32 148 57 202 69 304 70 79 1 109 -4 176 -27 88 -30
116 -28 161 15 20 19 21 22 7 33 -14 9 -10 14 25 29 22 10 50 29 62 42 18 20
20 26 9 39 -15 18 -15 17 27 39 18 9 37 25 43 37 10 17 6 25 -25 55 -48 45
-197 117 -308 147 -49 14 -91 27 -93 30 -3 3 2 17 11 31 39 60 -32 63 -142 5z"/>
<path d="M8496 4240 c-26 -32 -40 -81 -34 -120 3 -19 12 -12 66 51 62 72 62
73 40 86 -34 18 -44 16 -72 -17z"/>
<path d="M8392 3747 c-33 -35 -27 -45 28 -49 28 -1 50 -1 50 1 0 9 -42 71 -49
71 -4 0 -17 -10 -29 -23z"/>
<path d="M6015 3423 c-84 -11 -137 -27 -180 -54 l-48 -30 39 -40 c22 -22 53
-49 70 -60 30 -18 34 -19 118 -2 52 10 86 21 86 29 0 13 -22 24 -51 24 -21 0
-27 19 -6 21 6 0 26 2 42 2 27 2 32 8 47 52 15 47 15 50 0 57 -18 7 -67 8
-117 1z"/>
<path d="M6291 3334 c-7 -26 -10 -48 -8 -51 3 -2 42 -3 88 -1 l84 3 -72 48
c-39 26 -74 47 -76 47 -3 0 -10 -21 -16 -46z"/>
<path d="M6897 9523 c-52 -261 -67 -371 -67 -494 0 -99 2 -108 29 -150 16 -24
49 -68 75 -97 l46 -54 11 29 c6 15 55 181 108 368 54 187 101 349 104 360 6
17 -1 23 -39 39 -28 11 -80 52 -134 102 -48 46 -90 84 -92 84 -2 0 -21 -84
-41 -187z"/>
<path d="M9093 7206 c-39 -25 -37 -42 4 -39 30 3 30 2 36 -60 3 -35 3 -104 0
-155 l-6 -91 37 9 c21 4 40 11 43 13 3 3 -4 43 -15 89 -11 46 -28 119 -37 163
-10 44 -20 83 -24 86 -3 4 -21 -3 -38 -15z"/>
<path d="M3328 5662 c-87 -2 -98 -5 -103 -23 -7 -20 -44 -219 -41 -219 21 -5
191 -37 192 -36 3 5 54 279 52 280 -2 0 -47 0 -100 -2z"/>
<path d="M3600 4641 c0 -25 10 -51 20 -51 15 0 17 59 2 65 -20 8 -22 7 -22
-14z"/>
<path d="M5030 3210 c-6 -12 -9 -24 -7 -27 3 -2 11 5 17 17 6 12 9 24 7 27 -3
2 -11 -5 -17 -17z"/>
<path d="M7649 3160 c-79 -28 -145 -50 -147 -50 -1 0 4 -10 13 -23 l15 -23
132 64 c73 35 135 66 137 68 17 17 -25 7 -150 -36z"/>
<path d="M7037 3140 c-8 -20 -36 -204 -32 -208 2 -2 21 0 42 5 l39 8 -22 105
c-12 58 -24 98 -27 90z"/>
</g>
</svg>
