<?xml version="1.0" standalone="no"?>
<!DOCTYPE svg PUBLIC "-//W3C//DTD SVG 20010904//EN"
 "http://www.w3.org/TR/2001/REC-SVG-20010904/DTD/svg10.dtd">
<svg version="1.0" xmlns="http://www.w3.org/2000/svg"
 width="1588.000000pt" height="1191.000000pt" viewBox="0 0 1588.000000 1191.000000"
 preserveAspectRatio="xMidYMid meet">

<g transform="translate(0.000000,1191.000000) scale(0.100000,-0.100000)"
fill="#000000" stroke="none">
<path d="M7360 11083 c-151 -11 -556 -82 -744 -129 -141 -36 -178 -52 -297
-131 -127 -84 -211 -120 -401 -174 -79 -22 -226 -64 -328 -94 -244 -71 -229
-69 -268 -45 -45 28 -74 96 -76 177 0 34 -3 63 -4 63 -14 0 -156 -139 -204
-199 -101 -126 -148 -245 -148 -378 0 -57 -3 -65 -43 -116 -23 -30 -80 -105
-127 -166 -47 -61 -88 -111 -92 -111 -24 0 37 169 123 343 38 75 65 137 61
137 -17 0 -243 -240 -346 -367 -59 -73 -111 -133 -116 -133 -27 0 86 228 234
474 59 98 106 179 104 181 -2 2 -68 -51 -148 -117 -304 -251 -389 -360 -448
-577 -24 -88 -26 -113 -26 -301 -1 -233 10 -289 85 -449 21 -46 37 -86 35 -88
-9 -9 -93 141 -133 237 l-43 105 0 -57 c0 -86 26 -206 61 -276 52 -107 196
-228 324 -273 64 -22 160 -28 192 -11 11 6 65 52 119 103 132 121 176 152 469
322 138 80 308 179 378 220 155 91 198 104 281 82 72 -19 150 -62 191 -105
l30 -32 -65 7 c-36 4 -83 11 -105 15 -22 5 -41 7 -43 5 -3 -2 39 -89 92 -194
53 -104 96 -194 96 -199 0 -17 -67 6 -174 60 -54 27 -100 48 -102 46 -1 -2 75
-127 171 -278 95 -151 170 -276 165 -278 -11 -4 -61 22 -222 114 -72 41 -132
73 -134 71 -6 -5 91 -124 155 -190 31 -32 95 -91 143 -130 48 -39 86 -72 84
-74 -7 -7 -118 53 -255 137 -73 45 -144 86 -158 91 -24 9 -24 7 10 -38 130
-175 204 -293 183 -293 -7 0 -60 31 -118 70 -111 73 -163 129 -174 186 -3 18
6 101 20 186 21 131 56 367 56 384 0 11 -85 -61 -141 -118 -70 -72 -102 -136
-217 -443 -103 -274 -152 -424 -152 -461 0 -15 18 -67 41 -117 63 -141 62
-163 -9 -239 -24 -26 -32 -28 -101 -28 -42 0 -109 8 -150 17 l-74 17 -84 -89
c-146 -156 -203 -240 -203 -301 0 -41 19 -56 114 -93 95 -37 139 -76 162 -144
35 -105 6 -204 -103 -359 -90 -129 -102 -164 -117 -347 -16 -191 -30 -228
-114 -299 -124 -106 -132 -122 -91 -188 41 -66 159 -104 329 -104 89 0 98 -2
119 -24 l23 -25 -20 -33 c-11 -18 -30 -71 -42 -116 l-21 -84 25 -42 c14 -24
32 -48 40 -56 9 -7 16 -16 16 -21 0 -5 -251 -134 -557 -288 -307 -154 -566
-285 -576 -293 -17 -12 -16 -16 5 -66 16 -37 19 -55 11 -63 -8 -8 -20 3 -44
38 -18 26 -34 50 -36 52 -2 3 -19 -3 -38 -12 l-35 -17 20 -40 c30 -58 24 -70
-14 -27 -31 35 -36 37 -60 26 -14 -7 -26 -16 -26 -22 0 -17 73 -149 86 -154
16 -6 198 81 918 437 521 258 592 290 613 281 34 -15 37 -33 18 -92 -19 -55
-22 -166 -7 -196 5 -10 15 -50 21 -90 13 -82 26 -123 40 -123 6 0 27 -26 47
-57 31 -48 35 -63 31 -97 -4 -29 -1 -46 10 -58 14 -15 14 -22 -1 -64 -18 -54
-20 -84 -6 -84 6 0 10 -13 10 -29 0 -35 29 -103 62 -147 101 -137 203 -224
260 -224 12 0 29 -6 37 -14 36 -31 58 -29 85 10 l24 36 21 -41 c12 -22 26 -41
31 -41 5 0 32 9 60 20 28 11 59 20 69 20 10 0 39 11 65 25 25 13 74 32 108 41
77 20 105 34 142 73 23 24 32 28 48 20 15 -8 25 -5 51 18 18 16 167 87 336
162 340 150 380 160 483 126 95 -31 181 -98 535 -420 l44 -40 -62 -70 c-164
-186 -453 -485 -530 -549 -47 -39 -135 -107 -197 -151 -61 -44 -112 -84 -112
-88 0 -4 22 -40 48 -80 148 -220 342 -607 342 -682 0 -41 -49 -123 -170 -290
-180 -248 -229 -367 -320 -777 -23 -103 -50 -217 -60 -253 l-19 -65 2905 0
2904 0 0 1991 0 1990 -152 74 c-193 92 -318 139 -488 182 -163 41 -294 63
-377 63 -97 0 -145 27 -183 100 -24 47 -50 175 -50 245 0 35 -7 70 -19 93 -29
56 -165 180 -264 240 -104 64 -117 83 -181 266 -25 72 -54 141 -64 155 -35 47
-80 66 -157 66 -60 0 -81 -5 -146 -36 -78 -38 -205 -119 -338 -217 l-75 -55
-48 52 c-57 62 -124 195 -139 273 -5 31 -9 92 -7 135 l3 77 54 -82 c29 -45 55
-82 56 -82 2 0 -6 39 -16 88 -49 219 -69 327 -83 452 -26 224 -22 330 30 692
51 360 50 348 8 653 -60 431 -108 613 -271 1015 -103 257 -200 448 -283 560
-68 93 -111 156 -224 330 -60 93 -166 203 -291 302 -67 53 -89 80 -144 168
-184 297 -486 466 -911 510 -89 9 -309 11 -410 3z m560 -2954 c27 -6 50 -14
50 -18 0 -4 -26 -14 -57 -21 -122 -26 -234 -103 -288 -195 -13 -22 -38 -92
-56 -155 -37 -136 -44 -150 -68 -150 -31 0 -56 65 -55 145 0 167 146 341 325
389 67 18 85 19 149 5z m-1595 -101 c76 -26 178 -90 152 -96 -27 -5 -143 33
-211 71 -106 58 -75 71 59 25z m1871 -200 c113 -146 158 -308 152 -548 -3
-127 -5 -139 -34 -200 -41 -87 -348 -576 -387 -619 -18 -18 -54 -44 -82 -57
-83 -39 -152 -30 -212 29 -60 57 -44 92 88 199 40 32 47 44 57 94 7 31 12 61
12 66 0 5 -27 -10 -60 -32 -69 -47 -103 -50 -108 -9 -4 35 43 85 208 222 142
118 173 154 191 221 14 53 7 213 -12 251 -10 20 -39 43 -94 73 -44 24 -81 45
-83 47 -2 2 14 34 35 72 30 52 45 69 64 71 56 7 143 -88 175 -191 21 -69 30
-252 15 -314 -7 -26 -38 -95 -70 -153 -58 -105 -103 -209 -116 -265 -7 -27 -1
-24 65 40 203 198 269 352 257 605 -4 80 -12 135 -27 180 -25 75 -103 234
-155 314 -19 30 -35 58 -35 63 0 12 109 -98 156 -159z m-1601 -317 c81 -144
107 -231 112 -371 l4 -115 -22 25 c-40 46 -68 123 -119 338 -28 117 -54 221
-57 230 -6 15 -5 15 10 3 10 -8 42 -57 72 -110z m942 -296 c24 -50 34 -84 30
-103 -11 -65 -53 -192 -62 -189 -5 2 -21 25 -35 52 -20 40 -25 65 -25 120 1
72 30 195 47 195 5 0 25 -34 45 -75z m-2360 -6 c34 -13 73 -48 73 -66 0 -23
-77 -99 -119 -118 -38 -17 -42 -17 -65 -1 -33 21 -55 64 -63 121 -8 63 5 75
83 75 34 0 75 -5 91 -11z m764 -64 c67 -24 117 -61 139 -105 30 -60 26 -105
-17 -179 -42 -71 -187 -223 -249 -261 l-40 -24 4 -133 c7 -195 -9 -253 -131
-475 l-48 -87 30 -94 c16 -51 36 -125 43 -163 13 -75 18 -367 5 -380 -22 -23
-289 93 -350 153 -81 78 -89 129 -52 327 25 129 27 152 16 203 -16 82 -51 148
-123 234 -156 186 -180 299 -96 464 30 60 116 195 124 195 2 0 13 -18 23 -39
11 -21 40 -55 63 -76 l43 -37 64 74 c88 100 342 351 393 388 47 34 91 38 159
15z m-985 -1146 c35 -21 58 -58 52 -85 -3 -17 -13 -19 -93 -19 -86 0 -90 1
-104 27 -12 20 -13 34 -6 55 20 54 83 63 151 22z m609 -1101 c208 -67 275
-158 230 -314 -16 -55 -98 -204 -113 -204 -4 0 -6 35 -4 78 l4 78 -109 58
c-207 112 -239 144 -230 231 3 29 13 67 22 84 16 31 18 32 63 25 26 -4 88 -20
137 -36z"/>
<path d="M2876 5446 c128 -41 268 -145 312 -232 35 -69 35 -108 2 -239 -34
-134 -37 -188 -15 -262 17 -56 75 -128 126 -157 l34 -18 -37 34 c-59 57 -73
92 -72 183 1 69 6 95 42 188 33 85 42 120 42 170 0 73 -30 144 -82 194 -80 77
-236 144 -363 156 l-60 6 71 -23z"/>
<path d="M3023 5010 c-105 -169 -125 -218 -131 -321 -5 -106 18 -170 84 -228
88 -77 261 -100 411 -53 93 29 101 42 15 24 -168 -35 -315 29 -373 162 -30 71
-28 174 5 286 48 159 67 231 64 239 -2 4 -35 -45 -75 -109z"/>
</g>
</svg>
