<?xml version="1.0" standalone="no"?>
<!DOCTYPE svg PUBLIC "-//W3C//DTD SVG 20010904//EN"
 "http://www.w3.org/TR/2001/REC-SVG-20010904/DTD/svg10.dtd">
<svg version="1.0" xmlns="http://www.w3.org/2000/svg"
 width="564.000000pt" height="423.000000pt" viewBox="0 0 564.000000 423.000000"
 preserveAspectRatio="xMidYMid meet">

<g transform="translate(0.000000,423.000000) scale(0.100000,-0.100000)"
fill="#000000" stroke="none">
<path d="M2858 3704 c-3 -3 -48 -6 -100 -7 -75 -2 -101 -6 -136 -24 -53 -29
-54 -29 -46 5 6 26 4 25 -30 -13 -20 -22 -53 -64 -73 -94 -33 -47 -38 -51 -43
-31 -4 17 -16 -1 -55 -82 l-50 -103 1 -135 c2 -193 30 -334 94 -466 27 -56 55
-106 62 -112 7 -5 32 -16 55 -22 30 -9 43 -19 45 -34 2 -16 13 -23 51 -30 45
-8 50 -7 78 19 16 16 36 49 45 74 9 25 21 58 26 73 10 27 39 41 64 31 11 -4
15 -22 14 -72 -1 -36 1 -84 5 -107 6 -34 3 -45 -16 -68 -23 -26 -25 -27 -59
-13 -35 14 -60 13 -60 -3 0 -4 15 -11 34 -14 19 -4 39 -13 46 -21 7 -8 20 -15
29 -15 24 0 83 -39 79 -52 -3 -8 -32 -12 -79 -13 -45 -1 -95 -9 -129 -21 l-55
-19 123 -3 c67 -1 122 -7 122 -12 0 -17 -41 -31 -81 -29 -36 3 -41 0 -58 -32
l-19 -36 48 5 c96 9 155 -37 131 -100 -12 -31 -28 -37 -101 -38 -30 -1 -70 -2
-88 -2 -29 -1 -46 11 -144 108 -61 60 -108 102 -105 94 3 -8 32 -64 65 -125
32 -60 57 -112 56 -114 -2 -2 -15 4 -30 13 -47 32 -35 10 21 -39 31 -26 92
-69 136 -96 l80 -48 47 22 c70 34 72 35 181 131 l101 89 0 79 c0 69 3 84 25
112 22 28 26 48 32 130 6 92 7 96 29 96 34 0 74 73 74 134 0 27 7 73 16 103
16 56 13 103 -8 103 -6 0 -22 -10 -35 -22 -22 -21 -23 -21 -23 -2 0 11 7 30
16 43 15 21 16 45 10 200 -5 118 -4 186 4 205 9 24 8 27 -5 22 -18 -7 -19 2 0
34 17 30 19 44 5 35 -6 -4 -10 5 -10 19 0 15 -14 42 -33 63 -18 21 -45 59 -60
84 -31 54 -96 115 -143 135 -32 14 -165 20 -176 8z m42 -169 c-5 -14 -17 -36
-26 -50 -9 -14 -13 -25 -10 -25 9 0 97 47 124 66 20 15 22 15 22 1 0 -9 -5
-28 -10 -43 -14 -36 -7 -40 27 -17 53 37 54 37 47 6 -12 -51 -32 -79 -75 -107
-39 -26 -42 -27 -36 -7 4 18 3 19 -16 10 -12 -7 -36 -22 -54 -35 -17 -13 -34
-24 -38 -24 -10 0 26 64 54 94 31 35 12 26 -48 -22 -24 -20 -51 -53 -61 -74
-16 -36 -18 -37 -24 -16 -11 42 -6 139 9 167 16 32 93 100 112 101 9 0 10 -7
3 -25z m-225 -51 c15 22 73 66 88 66 2 0 -1 -17 -9 -37 -7 -21 -14 -76 -14
-123 l-2 -85 -23 49 -24 50 -3 -49 -3 -48 -37 48 c-37 46 -38 51 -37 124 l1
76 23 -49 23 -48 17 26z m-61 -126 c4 -21 3 -38 -1 -38 -13 1 -82 56 -104 84
-26 33 -13 34 21 1 l26 -25 -4 62 -4 63 30 -55 c16 -30 32 -72 36 -92z m499
44 c-17 -15 -45 -35 -61 -45 -30 -17 -30 -17 -25 4 4 14 25 30 57 45 65 29 68
29 29 -4z m-402 -188 l106 -54 57 25 c67 30 136 33 159 7 46 -51 39 -154 -14
-201 -16 -14 -29 -28 -29 -32 0 -4 21 -4 46 -1 l46 5 -7 -47 -7 -46 50 0 c103
0 132 -30 113 -115 -7 -29 -18 -61 -26 -71 -12 -16 -12 -12 1 19 8 22 14 59
12 85 -3 45 -4 46 -48 60 -60 18 -210 11 -244 -12 -38 -24 -145 -22 -196 5
-76 40 -309 36 -310 -4 0 -7 -7 -3 -15 7 -21 27 -19 74 4 118 17 31 18 38 6
54 -8 11 -15 30 -15 43 0 43 32 186 45 200 19 20 83 29 125 18 19 -5 83 -33
141 -63z"/>
<path d="M2301 2828 c0 -13 4 -32 9 -43 7 -18 8 -19 15 -2 4 9 13 17 21 17 19
0 17 14 -4 33 -26 23 -42 21 -41 -5z"/>
<path d="M2302 2114 l-123 -105 -322 -138 -322 -138 -44 -171 -44 -172 25 -32
25 -33 -29 -60 c-33 -71 -34 -75 -9 -106 19 -24 18 -25 -25 -123 l-43 -98 19
-27 19 -26 -49 -180 c-27 -99 -50 -181 -50 -182 0 -2 671 -3 1490 -3 l1490 0
-5 22 c-48 210 -95 424 -95 438 0 9 9 29 20 43 l21 26 -36 53 c-38 57 -41 69
-23 97 9 15 7 24 -11 49 l-22 31 22 30 21 29 -42 184 c-23 100 -46 190 -51
199 -4 9 -28 23 -52 33 -24 9 -165 68 -313 131 -148 62 -270 112 -272 110 -2
-2 24 -44 57 -94 34 -50 59 -91 57 -91 -3 0 -43 51 -90 113 -57 75 -119 142
-190 205 -58 50 -108 92 -111 92 -3 0 -5 -58 -5 -130 l0 -129 -53 -83 c-73
-114 -74 -115 -56 -103 8 6 35 28 62 49 l47 37 0 -79 c0 -49 -7 -104 -19 -143
-128 -430 -176 -585 -181 -592 -4 -4 -10 56 -14 135 -9 197 -21 261 -62 332
-36 61 -53 118 -54 176 0 25 8 43 32 67 l31 32 55 -79 c31 -44 57 -78 59 -76
2 2 -18 66 -45 142 -33 94 -53 138 -63 137 -8 0 -38 -12 -67 -24 l-52 -23 -57
28 c-30 15 -59 24 -63 19 -10 -10 -102 -275 -97 -279 1 -2 27 33 56 77 l53 81
30 -29 c29 -27 30 -31 26 -99 -4 -53 -13 -89 -37 -140 -39 -83 -50 -170 -51
-399 l-1 -160 -50 160 c-28 88 -78 246 -111 350 -52 163 -61 204 -65 289 l-5
99 48 -38 c27 -22 55 -44 63 -50 13 -9 -16 41 -85 145 -25 37 -26 45 -25 170
1 71 -2 130 -6 130 -4 -1 -63 -48 -131 -106z m-209 -488 c-10 -13 -20 -22 -22
-20 -4 4 29 44 36 44 2 0 -4 -11 -14 -24z m11 -72 c3 -8 2 -12 -4 -9 -6 3 -10
10 -10 16 0 14 7 11 14 -7z m20 -40 c3 -8 2 -12 -4 -9 -6 3 -10 10 -10 16 0
14 7 11 14 -7z m1290 -197 c-27 -60 -44 -80 -20 -24 26 61 39 87 43 84 2 -2
-8 -29 -23 -60z m-43 -94 c-12 -20 -14 -14 -5 12 4 9 9 14 11 11 3 -2 0 -13
-6 -23z m339 -47 l0 -43 -165 -33 c-91 -18 -168 -31 -171 -28 -2 3 0 17 5 31
8 21 24 30 93 50 46 14 112 34 148 45 91 28 90 28 90 -22z m-357 9 c-3 -9 -8
-14 -10 -11 -3 3 -2 9 2 15 9 16 15 13 8 -4z"/>
</g>
</svg>
